name analog
datacolumns 19
datarows 27
range 0.23450000000000001 0.2475
endheader
time	ground_force_vx	ground_force_vy	ground_force_vz	ground_force_px	ground_force_py	ground_force_pz	l_ground_force_vx	l_ground_force_vy	l_ground_force_vz	l_ground_force_px	l_ground_force_py	l_ground_force_pz	ground_torque_x	ground_torque_y	ground_torque_z	l_ground_torque_x	l_ground_torque_y	l_ground_torque_z
0.23450000000000001	-0.0	-0.0	-0.0	-0.0779233872890472	-3.8653526306152335	-712.2298583984375	-0.0	-0.0	-0.0	-0.0	-0.0	-0.0	-0.0	-0.0	-0.0	-0.0	-0.0	-0.0
0.23500000000000001	-0.0	-0.0	-0.0	0.3230937719345093	-4.634780883789063	-713.5093994140625	-0.0	-0.0	-0.0	-0.0	-0.0	-0.0	-0.0	-0.0	-0.0	-0.0	-0.0	-0.0
0.23550000000000001	-0.0	-0.0	-0.0	0.8135378360748291	-5.537298679351807	-711.348876953125	-0.0	-0.0	-0.0	-0.0	-0.0	-0.0	-0.0	-0.0	-0.0	-0.0	-0.0	-0.0
0.23600000000000002	-0.0	-0.0	-0.0	0.5352630615234375	-5.760226249694824	-712.3638916015625	-0.0	-0.0	-0.0	-0.0	-0.0	-0.0	-0.0	-0.0	-0.0	-0.0	-0.0	-0.0
0.23650000000000002	-0.0	-0.0	-0.0	0.0222969781607389	-7.163870334625244	-712.9379272460938	-0.0	-0.0	-0.0	-0.0	-0.0	-0.0	-0.0	-0.0	-0.0	-0.0	-0.0	-0.0
0.23700000000000002	-0.0	-0.0	-0.0	0.223365232348442	-7.208223819732666	-710.1559448242188	-0.0	-0.0	-0.0	-0.0	-0.0	-0.0	-0.0	-0.0	-0.0	-0.0	-0.0	-0.0
0.23750000000000002	-0.0	-0.0	-0.0	-0.9369741678237916	-8.478463172912598	-710.7735595703125	-0.0	-0.0	-0.0	-0.0	-0.0	-0.0	-0.0	-0.0	-0.0	-0.0	-0.0	-0.0
0.23800000000000002	-0.0	-0.0	-0.0	-1.1707843542099	-8.823909759521484	-711.9199829101562	-0.0	-0.0	-0.0	-0.0	-0.0	-0.0	-0.0	-0.0	-0.0	-0.0	-0.0	-0.0
0.23850000000000002	-0.0	-0.0	-0.0	-2.007795810699463	-8.222000122070312	-714.2606811523438	-0.0	-0.0	-0.0	-0.0	-0.0	-0.0	-0.0	-0.0	-0.0	-0.0	-0.0	-0.0
0.23900000000000002	-0.0	-0.0	-0.0	-2.5198628902435303	-8.913040161132812	-711.9619750976562	-0.0	-0.0	-0.0	-0.0	-0.0	-0.0	-0.0	-0.0	-0.0	-0.0	-0.0	-0.0
0.23950000000000002	-0.0	-0.0	-0.0	-3.0659971237182617	-8.578392028808594	-712.50048828125	-0.0	-0.0	-0.0	-0.0	-0.0	-0.0	-0.0	-0.0	-0.0	-0.0	-0.0	-0.0
0.24	-0.0	-0.0	-0.0	-2.841888427734375	-8.410955429077148	-712.0971069335938	-0.0	-0.0	-0.0	-0.0	-0.0	-0.0	-0.0	-0.0	-0.0	-0.0	-0.0	-0.0
0.2405	-0.0	-0.0	-0.0	-3.892600297927856	-8.423877716064453	-713.1217651367188	-0.0	-0.0	-0.0	-0.0	-0.0	-0.0	-0.0	-0.0	-0.0	-0.0	-0.0	-0.0
0.241	-0.0	-0.0	-0.0	-3.8360519409179688	-8.289127349853516	-711.261474609375	-0.0	-0.0	-0.0	-0.0	-0.0	-0.0	-0.0	-0.0	-0.0	-0.0	-0.0	-0.0
0.2415	-0.0	-0.0	-0.0	-4.136119365692139	-7.929893970489502	-710.8656005859375	-0.0	-0.0	-0.0	-0.0	-0.0	-0.0	-0.0	-0.0	-0.0	-0.0	-0.0	-0.0
0.242	-0.0	-0.0	-0.0	-3.868411302566528	-8.356703758239746	-712.503662109375	-0.0	-0.0	-0.0	-0.0	-0.0	-0.0	-0.0	-0.0	-0.0	-0.0	-0.0	-0.0
0.2425	-0.0	-0.0	-0.0	-3.557671546936035	-8.043214797973633	-709.7086791992188	-0.0	-0.0	-0.0	-0.0	-0.0	-0.0	-0.0	-0.0	-0.0	-0.0	-0.0	-0.0
0.243	-0.0	-0.0	-0.0	-3.814629793167114	-7.975411415100098	-710.5132446289062	-0.0	-0.0	-0.0	-0.0	-0.0	-0.0	-0.0	-0.0	-0.0	-0.0	-0.0	-0.0
0.2435	-0.0	-0.0	-0.0	-3.343531370162964	-8.388934135437012	-711.2621459960938	-0.0	-0.0	-0.0	-0.0	-0.0	-0.0	-0.0	-0.0	-0.0	-0.0	-0.0	-0.0
0.244	-0.0	-0.0	-0.0	-3.489857912063598	-8.231911659240723	-710.82470703125	-0.0	-0.0	-0.0	-0.0	-0.0	-0.0	-0.0	-0.0	-0.0	-0.0	-0.0	-0.0
0.2445	-0.0	-0.0	-0.0	-2.907787322998047	-8.032337188720703	-709.101318359375	-0.0	-0.0	-0.0	-0.0	-0.0	-0.0	-0.0	-0.0	-0.0	-0.0	-0.0	-0.0
0.245	-0.0	-0.0	-0.0	-3.222163200378418	-7.701468467712402	-709.6222534179688	-0.0	-0.0	-0.0	-0.0	-0.0	-0.0	-0.0	-0.0	-0.0	-0.0	-0.0	-0.0
0.2455	-0.0	-0.0	-0.0	-2.8863775730133057	-6.952171325683594	-712.1550903320312	-0.0	-0.0	-0.0	-0.0	-0.0	-0.0	-0.0	-0.0	-0.0	-0.0	-0.0	-0.0
0.246	-0.0	-0.0	-0.0	-3.2638864517211914	-6.20762825012207	-712.9454956054688	-0.0	-0.0	-0.0	-0.0	-0.0	-0.0	-0.0	-0.0	-0.0	-0.0	-0.0	-0.0
0.2465	-0.0	-0.0	-0.0	-3.038578987121582	-5.028111934661865	-713.4448852539062	-0.0	-0.0	-0.0	-0.0	-0.0	-0.0	-0.0	-0.0	-0.0	-0.0	-0.0	-0.0
0.247	-0.0	-0.0	-0.0	-3.0331573486328125	-4.860408782958984	-711.6354370117188	-0.0	-0.0	-0.0	-0.0	-0.0	-0.0	-0.0	-0.0	-0.0	-0.0	-0.0	-0.0
0.2475	-0.0	-0.0	-0.0	-2.990098714828491	-3.5385046005249023	-712.6759033203125	-0.0	-0.0	-0.0	-0.0	-0.0	-0.0	-0.0	-0.0	-0.0	-0.0	-0.0	-0.0
